HIERARCHY
ROOT hips
{
	OFFSET -0.003675 0.299928 -0.021708
	CHANNELS 6 Xposition Yposition Zposition Xrotation Yrotation Zrotation
	JOINT LowerBack
	{
		OFFSET 0.000919 0.177588 0.009275
		CHANNELS 3 Xrotation Yrotation Zrotation
		JOINT spine
		{
			OFFSET 0.000919 0.177588 0.009275
			CHANNELS 3 Xrotation Yrotation Zrotation
			JOINT chest
			{
				OFFSET 0.000456 0.100015 0.004638
				CHANNELS 3 Xrotation Yrotation Zrotation
				JOINT neck
				{
					OFFSET 0.000456 0.100015 0.004638
					CHANNELS 3 Xrotation Yrotation Zrotation
					JOINT head
					{
						OFFSET 0.000924 0.155147 0.009274
						CHANNELS 6 Xposition Yposition Zposition Xrotation Yrotation Zrotation
						End Site
						{
							OFFSET 0.000000 0.153400 0.000000
						}
					}
				}
				JOINT shoulder.L
				{
					OFFSET 0.019937 0.078966 0.057518
					CHANNELS 6 Xposition Yposition Zposition Yrotation Xrotation Zrotation
					JOINT upper_arm.L
					{
						OFFSET 0.177024 -0.020465 -0.095062
						CHANNELS 6 Xposition Yposition Zposition Xrotation Yrotation Zrotation
						JOINT forearm.L
						{
							OFFSET 0.247100 -0.135500 -0.061800
							CHANNELS 3 Xrotation Yrotation Zrotation
							JOINT hand.L
							{
								OFFSET 0.217000 -0.143000 0.039300
								CHANNELS 3 Xrotation Yrotation Zrotation
								JOINT palm.01.L
								{
									OFFSET 0.021770 -0.038291 0.012954
									CHANNELS 6 Xposition Yposition Zposition Yrotation Xrotation Zrotation
									JOINT f_index.01.L
									{
										OFFSET 0.053215 -0.044137 0.008236
										CHANNELS 3 Xrotation Yrotation Zrotation
										JOINT f_index.02.L
										{
											OFFSET 0.036108 -0.024723 -0.010656
											CHANNELS 3 Xrotation Yrotation Zrotation
											JOINT f_index.03.L
											{
												OFFSET 0.021342 -0.014948 -0.010846
												CHANNELS 3 Xrotation Yrotation Zrotation
												End Site
												{
													OFFSET 0.015600 -0.009860 -0.013421
												}
											}
										}
									}
									JOINT thumb.01.L
									{
										OFFSET -0.009090 -0.002348 -0.024223
										CHANNELS 6 Xposition Yposition Zposition Xrotation Yrotation Zrotation
										JOINT thumb.02.L
										{
											OFFSET 0.019713 -0.035076 -0.011120
											CHANNELS 3 Xrotation Yrotation Zrotation
											JOINT thumb.03.L
											{
												OFFSET 0.024877 -0.021748 -0.005176
												CHANNELS 3 Xrotation Yrotation Zrotation
												End Site
												{
													OFFSET 0.016125 -0.013029 -0.001569
												}
											}
										}
									}
								}
								JOINT palm.02.L
								{
									OFFSET 0.032823 -0.025104 0.012281
									CHANNELS 6 Xposition Yposition Zposition Yrotation Xrotation Zrotation
									JOINT f_middle.01.L
									{
										OFFSET 0.055723 -0.038469 0.008037
										CHANNELS 3 Xrotation Yrotation Zrotation
										JOINT f_middle.02.L
										{
											OFFSET 0.038167 -0.027473 -0.015582
											CHANNELS 3 Xrotation Yrotation Zrotation
											JOINT f_middle.03.L
											{
												OFFSET 0.021707 -0.016587 -0.017037
												CHANNELS 3 Xrotation Yrotation Zrotation
												End Site
												{
													OFFSET 0.014112 -0.010584 -0.014294
												}
											}
										}
									}
								}
								JOINT palm.03.L
								{
									OFFSET 0.039230 -0.011402 0.008390
									CHANNELS 6 Xposition Yposition Zposition Yrotation Xrotation Zrotation
									JOINT f_ring.01.L
									{
										OFFSET 0.061796 -0.031470 0.007910
										CHANNELS 3 Xrotation Yrotation Zrotation
										JOINT f_ring.02.L
										{
											OFFSET 0.033092 -0.023401 -0.019127
											CHANNELS 3 Xrotation Yrotation Zrotation
											JOINT f_ring.03.L
											{
												OFFSET 0.021392 -0.015362 -0.017824
												CHANNELS 3 Xrotation Yrotation Zrotation
												End Site
												{
													OFFSET 0.008670 -0.007297 -0.014686
												}
											}
										}
									}
								}
								JOINT palm.04.L
								{
									OFFSET 0.043417 0.002450 0.002889
									CHANNELS 6 Xposition Yposition Zposition Yrotation Xrotation Zrotation
									JOINT f_pinky.01.L
									{
										OFFSET 0.069986 -0.026156 0.003627
										CHANNELS 3 Xrotation Yrotation Zrotation
										JOINT f_pinky.02.L
										{
											OFFSET 0.018520 -0.012813 -0.016429
											CHANNELS 3 Xrotation Yrotation Zrotation
											JOINT f_pinky.03.L
											{
												OFFSET 0.013822 -0.009796 -0.014947
												CHANNELS 3 Xrotation Yrotation Zrotation
												End Site
												{
													OFFSET 0.007238 -0.006103 -0.011657
												}
											}
										}
									}
								}
							}
						}
					}
				}
				JOINT shoulder.R
				{
					OFFSET -0.016662 0.078957 0.057696
					CHANNELS 6 Xposition Yposition Zposition Yrotation Xrotation Zrotation
					JOINT upper_arm.R
					{
						OFFSET -0.176972 -0.020537 -0.095144
						CHANNELS 6 Xposition Yposition Zposition Xrotation Yrotation Zrotation
						JOINT forearm.R
						{
							OFFSET -0.247100 -0.135500 -0.061800
							CHANNELS 3 Xrotation Yrotation Zrotation
							JOINT hand.R
							{
								OFFSET -0.217000 -0.143000 0.039300
								CHANNELS 3 Xrotation Yrotation Zrotation
								JOINT palm.01.R
								{
									OFFSET -0.021773 -0.038278 0.012988
									CHANNELS 6 Xposition Yposition Zposition Yrotation Xrotation Zrotation
									JOINT f_index.01.R
									{
										OFFSET -0.053212 -0.044139 0.008249
										CHANNELS 3 Xrotation Yrotation Zrotation
										JOINT f_index.02.R
										{
											OFFSET -0.036049 -0.024835 -0.010634
											CHANNELS 3 Xrotation Yrotation Zrotation
											JOINT f_index.03.R
											{
												OFFSET -0.021371 -0.014881 -0.010866
												CHANNELS 3 Xrotation Yrotation Zrotation
												End Site
												{
													OFFSET -0.015584 -0.009883 -0.013422
												}
											}
										}
									}
									JOINT thumb.01.R
									{
										OFFSET 0.009113 -0.002381 -0.024211
										CHANNELS 6 Xposition Yposition Zposition Xrotation Yrotation Zrotation
										JOINT thumb.02.R
										{
											OFFSET -0.019694 -0.035097 -0.011088
											CHANNELS 3 Xrotation Yrotation Zrotation
											JOINT thumb.03.R
											{
												OFFSET -0.024867 -0.021762 -0.005168
												CHANNELS 3 Xrotation Yrotation Zrotation
												End Site
												{
													OFFSET -0.016120 -0.013036 -0.001565
												}
											}
										}
									}
								}
								JOINT palm.02.R
								{
									OFFSET -0.032828 -0.025095 0.012286
									CHANNELS 6 Xposition Yposition Zposition Yrotation Xrotation Zrotation
									JOINT f_middle.01.R
									{
										OFFSET -0.055721 -0.038472 0.008040
										CHANNELS 3 Xrotation Yrotation Zrotation
										JOINT f_middle.02.R
										{
											OFFSET -0.038101 -0.027593 -0.015557
											CHANNELS 3 Xrotation Yrotation Zrotation
											JOINT f_middle.03.R
											{
												OFFSET -0.021730 -0.016530 -0.017054
												CHANNELS 3 Xrotation Yrotation Zrotation
												End Site
												{
													OFFSET -0.014096 -0.010608 -0.014293
												}
											}
										}
									}
								}
								JOINT palm.03.R
								{
									OFFSET -0.039192 -0.011488 0.008390
									CHANNELS 6 Xposition Yposition Zposition Yrotation Xrotation Zrotation
									JOINT f_ring.01.R
									{
										OFFSET -0.061839 -0.031387 0.007876
										CHANNELS 3 Xrotation Yrotation Zrotation
										JOINT f_ring.02.R
										{
											OFFSET -0.033068 -0.023437 -0.019125
											CHANNELS 3 Xrotation Yrotation Zrotation
											JOINT f_ring.03.R
											{
												OFFSET -0.021371 -0.015393 -0.017822
												CHANNELS 3 Xrotation Yrotation Zrotation
												End Site
												{
													OFFSET -0.008654 -0.007321 -0.014684
												}
											}
										}
									}
								}
								JOINT palm.04.R
								{
									OFFSET -0.043421 0.002443 0.002845
									CHANNELS 6 Xposition Yposition Zposition Yrotation Xrotation Zrotation
									JOINT f_pinky.01.R
									{
										OFFSET -0.069983 -0.026169 0.003599
										CHANNELS 3 Xrotation Yrotation Zrotation
										JOINT f_pinky.02.R
										{
											OFFSET -0.018501 -0.012842 -0.016428
											CHANNELS 3 Xrotation Yrotation Zrotation
											JOINT f_pinky.03.R
											{
												OFFSET -0.013806 -0.009821 -0.014946
												CHANNELS 3 Xrotation Yrotation Zrotation
												End Site
												{
													OFFSET -0.007226 -0.006121 -0.011655
												}
											}
										}
									}
								}
							}
						}
					}
				}
			}
		}
	}
	JOINT pelvis.L
	{
		OFFSET 0.000000 0.000000 0.000000
		CHANNELS 6 Xposition Yposition Zposition Xrotation Yrotation Zrotation
		JOINT thigh.L
		{
			OFFSET 0.101675 0.001054 -0.000000
			CHANNELS 3 Xrotation Yrotation Zrotation
			JOINT shin.L
			{
				OFFSET 0.000000 -0.534800 0.041000
				CHANNELS 3 Xrotation Yrotation Zrotation
				JOINT foot.L
				{
					OFFSET 0.000000 -0.452000 -0.044800
					CHANNELS 3 Xrotation Yrotation Zrotation
					JOINT toe.L
					{
						OFFSET -0.000000 -0.068500 0.109600
						CHANNELS 3 Xrotation Yrotation Zrotation
						End Site
						{
							OFFSET -0.000000 0.000000 0.067200
						}
					}
				}
				JOINT heel.L
				{
					OFFSET 0.000000 -0.452000 -0.044800
					CHANNELS 3 Xrotation Yrotation Zrotation
					JOINT heel.02.L
					{
						OFFSET -0.038000 -0.085200 0.016200
						CHANNELS 6 Xposition Yposition Zposition Xrotation Yrotation Zrotation
						End Site
						{
							OFFSET 0.080000 -0.000000 0.000000
						}
					}
				}
			}
		}
	}
	JOINT pelvis.R
	{
		OFFSET 0.000000 0.000000 0.000000
		CHANNELS 6 Xposition Yposition Zposition Xrotation Yrotation Zrotation
		JOINT thigh.R
		{
			OFFSET -0.094325 0.001054 0.000000
			CHANNELS 3 Xrotation Yrotation Zrotation
			JOINT shin.R
			{
				OFFSET 0.000000 -0.534800 0.041000
				CHANNELS 3 Xrotation Yrotation Zrotation
				JOINT foot.R
				{
					OFFSET 0.000000 -0.452000 -0.044800
					CHANNELS 3 Xrotation Yrotation Zrotation
					JOINT toe.R
					{
						OFFSET -0.000000 -0.068500 0.109600
						CHANNELS 3 Xrotation Yrotation Zrotation
						End Site
						{
							OFFSET -0.000000 0.000000 0.067200
						}
					}
				}
				JOINT heel.R
				{
					OFFSET 0.000000 -0.452000 -0.044800
					CHANNELS 3 Xrotation Yrotation Zrotation
					JOINT heel.02.R
					{
						OFFSET 0.038000 -0.085200 0.016200
						CHANNELS 6 Xposition Yposition Zposition Xrotation Yrotation Zrotation
						End Site
						{
							OFFSET -0.080000 0.000000 -0.000000
						}
					}
				}
			}
		}
	}
}
MOTION
Frames: 4
Frame Time: 0.041667
-0.012092 0.207896 -0.004863 -23.244302 6.172802 87.210294 -0.000001 -0.000001 0.000000 -0.000000 0.000001 -0.000001 0.000001 -0.000004 0.000000 0.000001 -0.000002 0.000001 0.000924 0.155147 0.009274 5.878723 -0.025400 -19.836109 0.019937 0.078966 0.057518 0.547717 5.781751 54.265880 0.177024 -0.020465 -0.095062 -1.986069 -29.805054 24.644876 0.461611 25.922926 36.970591 -0.000002 -0.000001 -0.000000 0.021771 -0.038291 0.012954 -0.000000 -0.000001 -0.000006 -0.000000 -0.000000 0.000001 -0.000000 -0.000000 0.000009 0.000002 0.000003 0.000000 -0.009090 -0.002348 -0.024223 -0.000003 -0.000003 0.000002 0.000000 -0.000000 -0.000004 -0.000000 0.000000 -0.000004 0.032823 -0.025104 0.012281 -0.000002 -0.000000 -0.000001 -0.000001 -0.000003 -0.000004 -0.000003 0.000001 0.000002 -0.000000 0.000002 -0.000003 0.039230 -0.011402 0.008390 -0.000001 0.000000 0.000001 0.000002 -0.000000 -0.000002 0.000001 0.000003 -0.000000 0.000002 -0.000002 -0.000000 0.043417 0.002450 0.002889 -0.000002 -0.000001 -0.000005 -0.000001 -0.000003 -0.000002 -0.000003 0.000001 0.000001 0.000001 0.000003 0.000001 -0.016662 0.078957 0.057696 -27.747241 9.126352 -42.883254 -0.176972 -0.020537 -0.095144 8.099063 13.245763 -37.110562 -3.439104 -30.820515 -43.666222 -0.000001 0.000001 0.000000 -0.021773 -0.038278 0.012988 0.000001 -0.000002 -0.000003 -0.000002 0.000002 0.000001 0.000001 -0.000002 0.000001 -0.000004 0.000005 -0.000002 0.009114 -0.002381 -0.024212 0.000002 -0.000002 0.000002 0.000000 -0.000001 0.000002 0.000001 -0.000001 0.000001 -0.032828 -0.025095 0.012286 0.000001 -0.000000 -0.000001 -0.000001 0.000002 0.000004 0.000002 -0.000003 0.000001 -0.000001 0.000003 -0.000004 -0.039192 -0.011488 0.008390 -0.000001 0.000001 0.000001 0.000000 0.000003 -0.000002 -0.000001 -0.000002 -0.000000 0.000000 0.000003 0.000003 -0.043421 0.002442 0.002845 -0.000000 -0.000000 0.000002 -0.000003 0.000002 -0.000001 0.000002 -0.000007 0.000002 0.000001 0.000001 0.000001 0.000000 0.000000 -0.000000 -2.120878 -0.527196 4.909111 9.935663 0.514676 6.433369 33.599388 -1.646715 16.863001 -0.000002 0.000000 -0.000000 0.000002 0.000002 0.000001 -0.000002 0.000001 0.000001 -0.038000 -0.085200 0.016200 -0.000001 0.000000 -0.000000 0.000000 0.000000 0.000000 -2.093718 -0.524573 6.143554 3.316768 0.446918 5.721373 40.489652 -0.075737 0.764973 -0.000002 0.000001 0.000000 0.000001 0.000000 0.000000 0.000002 0.000002 0.000002 0.038000 -0.085200 0.016200 -0.000002 0.000001 0.000001 
-0.012025 0.208721 -0.004602 -29.005112 5.895538 88.796291 -0.000001 0.000002 0.000000 -0.000001 -0.000000 0.000000 -0.000001 -0.000002 -0.000000 -0.000000 0.000001 -0.000000 0.000924 0.155148 0.009274 9.889667 -0.026833 -16.000703 0.019937 0.078966 0.057518 -3.233332 5.758592 54.601352 0.177024 -0.020465 -0.095062 -10.598606 -30.358299 14.965143 2.402408 21.665169 31.216837 -0.000000 0.000000 0.000001 0.021770 -0.038291 0.012954 0.000001 0.000001 -0.000001 -0.000001 -0.000001 0.000005 -0.000000 -0.000000 0.000003 -0.000000 0.000002 0.000002 -0.009090 -0.002348 -0.024224 0.000002 -0.000002 0.000001 -0.000000 -0.000001 0.000003 0.000000 0.000001 -0.000002 0.032823 -0.025104 0.012281 0.000001 0.000000 0.000007 -0.000001 0.000003 -0.000007 -0.000003 -0.000005 0.000003 0.000000 -0.000004 0.000002 0.039230 -0.011402 0.008390 -0.000001 0.000001 0.000004 -0.000000 0.000004 -0.000002 -0.000002 0.000004 0.000003 -0.000003 -0.000003 0.000005 0.043417 0.002450 0.002889 -0.000001 0.000002 -0.000000 -0.000002 -0.000003 -0.000000 -0.000003 -0.000004 -0.000001 -0.000001 -0.000006 0.000000 -0.016662 0.078957 0.057696 -32.203447 10.383488 -42.135922 -0.176972 -0.020537 -0.095144 13.568698 9.894386 -46.400962 1.930517 -32.969292 -31.074916 -0.000000 0.000001 0.000002 -0.021773 -0.038278 0.012988 -0.000000 -0.000002 -0.000002 -0.000001 0.000003 0.000001 -0.000001 -0.000002 -0.000006 -0.000003 0.000003 -0.000003 0.009114 -0.002381 -0.024212 0.000001 -0.000004 -0.000003 0.000000 -0.000003 0.000002 0.000001 0.000001 -0.000003 -0.032828 -0.025095 0.012286 0.000001 -0.000002 -0.000001 -0.000000 0.000001 0.000006 -0.000000 0.000003 0.000002 -0.000002 0.000003 -0.000002 -0.039192 -0.011488 0.008390 0.000000 0.000000 -0.000000 0.000000 0.000001 0.000000 0.000003 -0.000004 -0.000000 -0.000001 0.000001 -0.000001 -0.043421 0.002442 0.002845 -0.000001 -0.000001 0.000000 -0.000002 0.000000 0.000001 0.000000 -0.000005 0.000002 -0.000002 0.000005 -0.000001 -0.000000 0.000000 -0.000000 -2.104321 -0.551398 5.195899 9.758198 0.610708 7.709030 29.034164 -1.762251 18.086090 0.000000 0.000001 -0.000000 0.000003 0.000003 0.000001 -0.000003 0.000000 0.000001 -0.038000 -0.085200 0.016200 0.000003 0.000000 0.000000 0.000000 0.000000 -0.000000 -2.078267 -0.548756 6.430348 4.583556 0.420539 5.468871 36.861807 -0.384586 3.883870 0.000003 -0.000001 0.000000 0.000001 0.000003 -0.000001 0.000007 -0.000002 0.000001 0.038000 -0.085200 0.016200 0.000000 -0.000002 -0.000001 
-0.012376 0.208945 -0.004418 -32.995527 4.995752 90.559764 -0.000001 0.000001 0.000000 -0.000001 0.000003 -0.000001 0.000000 -0.000004 -0.000000 -0.000001 -0.000005 0.000000 0.000924 0.155147 0.009274 12.223024 -0.024996 -11.707304 0.019937 0.078966 0.057518 -8.974571 6.076534 56.679454 0.177024 -0.020465 -0.095062 -17.015536 -25.688620 6.092975 2.412994 15.265411 29.965706 -0.000002 0.000001 0.000003 0.021770 -0.038291 0.012954 0.000000 0.000002 0.000001 -0.000000 -0.000000 -0.000000 -0.000003 -0.000000 0.000007 0.000001 0.000004 0.000004 -0.009090 -0.002348 -0.024223 0.000000 0.000000 0.000003 0.000001 0.000000 0.000003 -0.000000 0.000002 -0.000002 0.032823 -0.025104 0.012281 -0.000001 0.000001 0.000005 0.000001 0.000001 -0.000005 -0.000003 -0.000004 -0.000000 -0.000002 -0.000005 -0.000002 0.039230 -0.011402 0.008390 -0.000002 0.000001 0.000008 0.000001 0.000001 -0.000002 -0.000001 0.000001 0.000001 0.000001 -0.000000 0.000003 0.043417 0.002450 0.002889 -0.000001 0.000002 -0.000004 -0.000001 -0.000003 -0.000000 0.000001 0.000002 0.000000 -0.000002 -0.000003 -0.000001 -0.016662 0.078957 0.057696 -38.080770 12.126384 -40.249420 -0.176972 -0.020537 -0.095144 16.220822 9.375044 -50.654022 -3.923406 -33.958328 -43.365380 0.000000 0.000001 -0.000000 -0.021773 -0.038278 0.012988 0.000001 -0.000001 -0.000002 -0.000000 0.000001 -0.000003 -0.000000 -0.000002 -0.000003 -0.000003 0.000002 -0.000003 0.009113 -0.002381 -0.024211 0.000002 -0.000003 -0.000005 -0.000000 -0.000001 0.000004 0.000000 0.000000 -0.000001 -0.032828 -0.025095 0.012286 0.000002 0.000000 0.000001 -0.000001 0.000003 0.000006 0.000001 0.000002 0.000000 -0.000006 0.000006 -0.000003 -0.039192 -0.011488 0.008390 0.000001 0.000001 0.000003 0.000002 0.000003 -0.000003 0.000001 -0.000002 0.000002 -0.000003 0.000002 -0.000003 -0.043420 0.002443 0.002844 -0.000001 0.000000 0.000002 -0.000004 0.000003 -0.000001 -0.000003 -0.000003 0.000000 0.000000 0.000004 0.000003 0.000000 0.000000 0.000000 -2.093872 -0.460453 4.194140 9.152499 0.767142 9.810996 28.900306 -1.710826 17.540629 0.000000 0.000001 0.000001 -0.000003 -0.000001 0.000000 0.000000 -0.000002 -0.000002 -0.038000 -0.085200 0.016200 -0.000001 0.000000 0.000001 0.000000 0.000000 0.000000 -2.064883 -0.458021 5.428563 6.088906 0.480601 6.366988 34.174688 -0.593712 6.001962 0.000003 -0.000000 -0.000001 -0.000000 -0.000003 0.000002 0.000007 -0.000001 0.000003 0.038000 -0.085200 0.016200 0.000001 0.000001 -0.000001 
-0.021255 0.209674 -0.019324 -16.282899 -12.648138 70.606719 -0.000001 -0.000000 0.000003 0.000000 0.000000 0.000001 -0.000000 -0.000001 0.000001 -0.000001 0.000000 0.000001 0.000924 0.155147 0.009274 4.555132 -0.004693 2.738026 0.019937 0.078966 0.057518 7.665779 0.957852 30.212505 0.177024 -0.020465 -0.095062 -18.472805 7.407992 -37.553534 -2.771728 -4.835675 1.537042 0.000004 0.000000 -0.000004 0.021770 -0.038291 0.012954 -0.000001 -0.000006 0.000001 -0.000003 -0.000002 -0.000002 0.000004 -0.000006 0.000006 0.000001 -0.000001 0.000003 -0.009090 -0.002348 -0.024223 -0.000002 -0.000002 -0.000003 0.000002 0.000003 -0.000000 -0.000003 0.000000 0.000003 0.032823 -0.025104 0.012281 0.000000 0.000002 0.000009 0.000001 0.000003 -0.000003 -0.000001 0.000004 0.000002 0.000003 0.000001 0.000001 0.039230 -0.011402 0.008390 0.000002 -0.000000 0.000008 0.000004 -0.000003 0.000001 0.000003 0.000005 -0.000001 0.000003 -0.000002 0.000003 0.043417 0.002450 0.002889 0.000001 -0.000002 0.000005 -0.000004 -0.000001 -0.000000 0.000001 0.000002 -0.000001 -0.000001 0.000000 -0.000000 -0.016662 0.078957 0.057696 0.450493 2.169874 -38.997074 -0.176972 -0.020537 -0.095144 -41.166739 0.429910 37.661458 -31.604317 9.853645 47.432536 -0.000003 0.000001 0.000004 -0.021773 -0.038278 0.012988 0.000001 -0.000001 -0.000003 -0.000001 0.000001 -0.000003 -0.000001 -0.000004 -0.000004 0.000001 -0.000000 -0.000003 0.009113 -0.002381 -0.024212 0.000001 -0.000002 0.000000 0.000001 0.000001 0.000000 -0.000006 0.000001 -0.000001 -0.032828 -0.025095 0.012286 0.000001 -0.000002 -0.000001 0.000004 0.000002 0.000003 -0.000000 0.000004 -0.000001 -0.000001 0.000006 -0.000003 -0.039192 -0.011488 0.008390 0.000001 0.000005 -0.000000 0.000002 0.000004 -0.000002 0.000007 0.000001 0.000002 0.000003 0.000005 0.000000 -0.043421 0.002443 0.002845 0.000001 -0.000000 0.000002 -0.000009 0.000002 -0.000001 0.000001 0.000000 0.000002 0.000001 0.000000 0.000002 0.000000 0.000000 -0.000000 -2.316121 -0.470569 4.101489 -2.066722 0.343599 4.937233 20.248745 -2.043868 21.105758 -0.000002 0.000001 0.000001 -0.000005 -0.000001 -0.000001 -0.000002 0.000001 0.000001 -0.038000 -0.085200 0.016200 0.000004 0.000000 -0.000000 0.000000 0.000000 0.000000 -2.283662 -0.467902 5.335946 -31.705625 0.299048 1.285773 24.096665 -0.090215 0.910724 -0.000005 -0.000001 -0.000001 0.000003 0.000002 0.000000 0.000000 0.000000 -0.000002 0.038000 -0.085200 0.016200 0.000002 0.000001 0.000001 
